<svg aria-hidden="true" style="position: absolute; width: 0; height: 0; overflow: hidden;" version="1.1" xmlns="http://www.w3.org/2000/svg" xmlns:xlink="http://www.w3.org/1999/xlink">
<defs>
<symbol id="icon-twiter-1" viewBox="0 0 32 32">
<path d="M32 6.234c-1.2 0.522-2.47 0.864-3.77 1.019 1.353-0.803 2.374-2.045 2.875-3.527l0.013-0.046c-1.201 0.716-2.599 1.26-4.087 1.554l-0.084 0.014c-1.206-1.263-2.902-2.048-4.782-2.048-0.003 0-0.007 0-0.010 0h0.001c-3.627 0-6.565 2.893-6.565 6.459-0.003 0.496 0.054 0.992 0.17 1.474-5.453-0.263-10.26-2.821-13.51-6.722l-0.024-0.030c-0.56 0.928-0.891 2.048-0.893 3.246v0c0 2.24 1.168 4.219 2.934 5.379-1.1-0.026-2.125-0.322-3.020-0.823l0.033 0.017v0.080c0 3.133 2.266 5.739 5.267 6.333-0.519 0.144-1.114 0.227-1.729 0.227h-0c-0.416 0-0.829-0.040-1.235-0.12 0.835 2.566 3.262 4.432 6.138 4.486-2.223 1.727-5.052 2.769-8.126 2.769-0.562 0-1.116-0.035-1.659-0.102l0.065 0.007c2.829 1.831 6.287 2.92 9.999 2.92 0.017 0 0.035-0 0.052-0h-0.003c12.093 0 18.698-9.846 18.698-18.387 0-0.28-0.008-0.56-0.021-0.832 1.289-0.925 2.375-2.034 3.246-3.304l0.029-0.045z"></path>
</symbol>
<symbol id="icon-logo-1" viewBox="0 0 32 32">
<path stroke-linejoin="round" stroke-linecap="round" stroke-miterlimit="4" stroke-width="2.5946" d="M2.077 2.205v6.918c0 1.975 0.862 3.724 2.198 4.855 0.653 0.553 1.085 1.301 1.085 2.13v11.547c0 1.284 1.104 2.326 2.463 2.326s2.462-1.042 2.462-2.326v-11.546c0-0.83 0.432-1.578 1.085-2.131 1.336-1.132 2.198-2.88 2.198-4.855v0M7.821 9.827v-7.752M29.982 3.706c0-0.856-0.735-1.55-1.642-1.55h-1.642c-2.72 0-4.925 2.082-4.925 4.651v9.302c0 2.022 1.373 3.726 3.283 4.366v7.182c0 1.283 1.103 2.326 2.462 2.326s2.462-1.042 2.462-2.326v-23.949z"></path>
</symbol>
<symbol id="icon-user-01-1" viewBox="0 0 32 32">
<path stroke-linejoin="round" stroke-linecap="round" stroke-miterlimit="4" stroke-width="3.0476" d="M28.19 29.714c0-2.127 0-3.189-0.262-4.055-0.605-1.952-2.112-3.459-4.021-4.052l-0.043-0.012c-0.866-0.262-1.928-0.262-4.055-0.262h-7.619c-2.127 0-3.189 0-4.055 0.262-1.952 0.605-3.459 2.112-4.052 4.021l-0.012 0.043c-0.262 0.866-0.262 1.928-0.262 4.055M22.857 9.143c0 3.787-3.070 6.857-6.857 6.857s-6.857-3.070-6.857-6.857v0c0-3.787 3.070-6.857 6.857-6.857s6.857 3.070 6.857 6.857v0z"></path>
</symbol>
<symbol id="icon-edit-01-1" viewBox="0 0 32 32">
<path stroke-linejoin="round" stroke-linecap="round" stroke-miterlimit="4" stroke-width="2.1895" d="M3.789 24.546c0.079-0.696 0.118-1.044 0.222-1.369 0.102-0.312 0.235-0.583 0.4-0.831l-0.008 0.012c0.189-0.286 0.438-0.532 0.933-1.027l17.331-17.331c0.683-0.682 1.625-1.103 2.666-1.103s1.984 0.422 2.666 1.103l-0-0c0.682 0.683 1.104 1.626 1.104 2.667s-0.422 1.984-1.104 2.667l-17.331 17.331c-0.495 0.493-0.743 0.741-1.027 0.93-0.236 0.157-0.506 0.29-0.795 0.386l-0.024 0.007c-0.325 0.106-0.674 0.145-1.369 0.222l-4.121 0.458 0.458-4.121z"></path>
</symbol>
<symbol id="icon-user-1" viewBox="0 0 32 32">
<path stroke-linejoin="round" stroke-linecap="round" stroke-miterlimit="4" stroke-width="2.7234" d="M26.667 28v-2.667c-0-2.945-2.388-5.333-5.334-5.333h-10.666c-2.945 0-5.333 2.388-5.333 5.333v2.667M16 14.667c2.946 0 5.333-2.388 5.333-5.333s-2.388-5.333-5.333-5.333v0c-2.946 0-5.333 2.388-5.333 5.333s2.388 5.333 5.333 5.333v0z"></path>
</symbol>
<symbol id="icon-plus-1" viewBox="0 0 32 32">
<path stroke-linejoin="round" stroke-linecap="round" stroke-miterlimit="4" stroke-width="3.5556" d="M16 6.667v18.667M6.667 16h18.667"></path>
</symbol>
<symbol id="icon-close-1" viewBox="0 0 32 32">
<path stroke-linejoin="round" stroke-linecap="round" stroke-miterlimit="4" stroke-width="2.6667" d="M25 7l-18 18M25 25l-18-18"></path>
</symbol>
<symbol id="icon-search-1" viewBox="0 0 32 32">
<path stroke-linejoin="round" stroke-linecap="round" stroke-miterlimit="4" stroke-width="2.6667" d="M14.667 25.333c5.891 0 10.667-4.776 10.667-10.667s-4.776-10.667-10.667-10.667v0c-5.891 0-10.667 4.776-10.667 10.667s4.776 10.667 10.667 10.667v0zM28 28l-5.8-5.8"></path>
</symbol>
<symbol id="icon-arrow-right-1" viewBox="0 0 32 32">
<path stroke-linejoin="round" stroke-linecap="round" stroke-miterlimit="4" stroke-width="2.1895" d="M5.474 16h16.842M16 7.158l8.842 8.842-8.842 8.842"></path>
</symbol>
<symbol id="icon-camera-1" viewBox="0 0 32 32">
<path stroke-linejoin="round" stroke-linecap="round" stroke-miterlimit="4" stroke-width="0.5" d="M28.191 11.428v-4.58c0 0 0 0 0 0 0-1.68-1.359-3.042-3.038-3.047l-4.581-0.014M28.191 20.572v4.572c0 1.683-1.364 3.047-3.047 3.047v0h-4.572M11.428 3.787l-4.58 0.015c-1.68 0.005-3.039 1.367-3.039 3.047 0 0 0 0.001 0 0.001v-0 4.579M11.428 28.191h-4.572c-1.683-0-3.047-1.365-3.047-3.047v-4.572"></path>
<path d="M16 18.75c0.625 0 1.157-0.218 1.594-0.656s0.656-0.969 0.656-1.594c0-0.625-0.218-1.156-0.656-1.594s-0.969-0.656-1.594-0.656c-0.625 0-1.156 0.219-1.594 0.656s-0.656 0.969-0.656 1.594c0 0.625 0.219 1.157 0.656 1.594s0.969 0.656 1.594 0.656zM12 20.5c-0.275 0-0.51-0.098-0.706-0.294-0.181-0.175-0.294-0.421-0.294-0.693 0-0.005 0-0.009 0-0.014v0.001-6c0-0.275 0.098-0.51 0.294-0.706 0.175-0.181 0.42-0.294 0.692-0.294 0.005 0 0.010 0 0.015 0h1.574l0.925-1h3l0.925 1h1.575c0.275 0 0.511 0.098 0.706 0.294s0.294 0.431 0.294 0.706v6c0 0.275-0.098 0.511-0.294 0.706-0.175 0.181-0.421 0.294-0.693 0.294-0.005 0-0.010-0-0.015-0h-7.999z"></path>
</symbol>
<symbol id="icon-facebook-1" viewBox="0 0 32 32">
<path d="M32 16.097c0-8.89-7.164-16.097-16-16.097s-16 7.207-16 16.097c0 8.033 5.85 14.693 13.5 15.902v-11.248h-4.064v-4.652h4.064v-3.547c0-4.033 2.389-6.263 6.043-6.263 1.751 0 3.582 0.315 3.582 0.315v3.962h-2.018c-1.985 0-2.607 1.241-2.607 2.514v3.019h4.437l-0.709 4.654h-3.728v11.248c7.65-1.209 13.5-7.867 13.5-15.903z"></path>
</symbol>
<symbol id="icon-you-tube-1" viewBox="0 0 32 32">
<path d="M31.794 8.981c0-2.946-2.069-5.317-4.625-5.317-3.463-0.17-6.994-0.235-10.605-0.235h-1.125c-3.6 0-7.138 0.065-10.601 0.235-2.551 0-4.619 2.384-4.619 5.33-0.14 2.002-0.22 4.339-0.22 6.694 0 0.105 0 0.21 0 0.314l-0-0.016c-0.006 2.331 0.065 4.663 0.213 6.999 0 2.946 2.069 5.337 4.619 5.337 3.638 0.176 7.37 0.255 11.165 0.248 3.8 0.013 7.521-0.070 11.163-0.249 2.557 0 4.625-2.39 4.625-5.336 0.151-2.337 0.219-4.669 0.213-7.006 0.015-2.331-0.054-4.664-0.203-6.999zM12.939 22.409v-12.866l9.063 6.43-9.063 6.437z"></path>
</symbol>
<symbol id="icon-instagram-1" viewBox="0 0 32 32">
<path d="M22.667 2.667c3.677 0.011 6.655 2.989 6.667 6.666v13.334c-0.011 3.677-2.989 6.655-6.666 6.667h-13.334c-3.677-0.012-6.655-2.99-6.667-6.666v-13.335c0.011-3.677 2.989-6.655 6.666-6.667h13.334zM22.667 0h-13.333c-5.133 0-9.333 4.2-9.333 9.333v13.333c0 5.133 4.2 9.333 9.333 9.333h13.333c5.133 0 9.333-4.2 9.333-9.333v-13.333c0-5.133-4.2-9.333-9.333-9.333z"></path>
<path d="M24.667 9.336c-1.105 0-2-0.895-2-2s0.895-2 2-2v0c1.105 0 2 0.895 2 2s-0.895 2-2 2v0zM16 10.669c2.946 0 5.333 2.388 5.333 5.333s-2.388 5.333-5.333 5.333v0c-2.946 0-5.333-2.388-5.333-5.333s2.388-5.333 5.333-5.333v0zM16 8.003c-4.418 0-8 3.582-8 8s3.582 8 8 8v0c4.418 0 8-3.582 8-8s-3.582-8-8-8v0z"></path>
</symbol>
<symbol id="icon-trash-01-1" viewBox="0 0 32 32">
<path stroke-linejoin="round" stroke-linecap="round" stroke-miterlimit="4" stroke-width="2.6667" d="M21.333 8v-1.067c0-1.493 0-2.24-0.291-2.811-0.261-0.504-0.661-0.905-1.151-1.158l-0.015-0.007c-0.571-0.291-1.317-0.291-2.811-0.291h-2.133c-1.493 0-2.24 0-2.811 0.291-0.504 0.261-0.905 0.661-1.158 1.15l-0.007 0.015c-0.291 0.571-0.291 1.317-0.291 2.811v1.067M13.333 15.333v6.667M18.667 15.333v6.667M4 8h24M25.333 8v14.933c0 2.24 0 3.36-0.436 4.216-0.391 0.756-0.992 1.357-1.726 1.738l-0.022 0.011c-0.856 0.436-1.976 0.436-4.216 0.436h-5.867c-2.24 0-3.36 0-4.216-0.436-0.756-0.391-1.357-0.992-1.737-1.726l-0.011-0.022c-0.436-0.856-0.436-1.976-0.436-4.216v-14.933"></path>
</symbol>
<symbol id="icon-clock-1" viewBox="0 0 32 32">
<path stroke-linejoin="round" stroke-linecap="round" stroke-miterlimit="4" stroke-width="2.88" d="M16 29.333c7.364 0 13.333-5.969 13.333-13.333s-5.969-13.333-13.333-13.333v0c-7.364 0-13.333 5.969-13.333 13.333s5.969 13.333 13.333 13.333v0z"></path>
<path stroke-linejoin="round" stroke-linecap="round" stroke-miterlimit="4" stroke-width="2.88" d="M16 8v8l5.333 2.667"></path>
</symbol>
<symbol id="icon-menu-03-1" viewBox="0 0 32 32">
<path stroke-linejoin="round" stroke-linecap="round" stroke-miterlimit="4" stroke-width="2.5" d="M4 16h24M4 8h24M4 24h16"></path>
</symbol>
<symbol id="icon-leter-1" viewBox="0 0 32 32">
<path stroke-linejoin="round" stroke-linecap="round" stroke-miterlimit="4" stroke-width="2.1333" d="M4.622 5.333h22.756c0.754 0.002 1.476 0.284 2.009 0.782 0.533 0.501 0.834 1.179 0.836 1.884v16c-0.002 0.708-0.302 1.383-0.836 1.884-0.533 0.498-1.255 0.78-2.009 0.782h-22.756c-0.002 0-0.005 0-0.008 0-0.773 0-1.477-0.297-2.003-0.784l0.002 0.002c-0.509-0.47-0.829-1.139-0.836-1.883v-16.001c0.002-0.706 0.302-1.383 0.836-1.884 0.533-0.498 1.255-0.78 2.009-0.782v0z"></path>
<path stroke-linejoin="round" stroke-linecap="round" stroke-miterlimit="4" stroke-width="2.1333" d="M30.222 8l-14.222 9.333-14.222-9.333"></path>
</symbol>
<symbol id="icon-lock-02-1" viewBox="0 0 32 32">
<path stroke-linejoin="round" stroke-linecap="round" stroke-miterlimit="4" stroke-width="2.56" d="M22.4 14.72v-3.84c0-3.535-2.865-6.4-6.4-6.4s-6.4 2.865-6.4 6.4v0 3.84M10.624 27.52h10.752c2.15 0 3.226 0 4.047-0.419 0.726-0.375 1.303-0.952 1.668-1.657l0.010-0.021c0.419-0.822 0.419-1.897 0.419-4.047v-0.512c0-2.15 0-3.226-0.419-4.047-0.375-0.726-0.952-1.303-1.657-1.668l-0.021-0.010c-0.822-0.419-1.897-0.419-4.047-0.419h-10.752c-2.15 0-3.226 0-4.047 0.419-0.726 0.375-1.303 0.952-1.668 1.657l-0.010 0.021c-0.419 0.822-0.419 1.897-0.419 4.047v0.512c0 2.15 0 3.226 0.419 4.047 0.375 0.726 0.952 1.303 1.657 1.668l0.021 0.010c0.822 0.419 1.897 0.419 4.047 0.419z"></path>
</symbol>
</defs>
</svg>
