<svg aria-hidden="true" style="position: absolute; width: 0; height: 0; overflow: hidden;" version="1.1" xmlns="http://www.w3.org/2000/svg" xmlns:xlink="http://www.w3.org/1999/xlink">
<defs>
<symbol id="icon-lock-02" viewBox="0 0 32 32">
<path stroke-linejoin="round" stroke-linecap="round" stroke-miterlimit="4" stroke-width="2.56" d="M22.4 14.72v-3.84c0-3.535-2.865-6.4-6.4-6.4s-6.4 2.865-6.4 6.4v3.84M10.624 27.52h10.752c2.151 0 3.226 0 4.047-0.419 0.723-0.368 1.31-0.956 1.678-1.678 0.419-0.822 0.419-1.897 0.419-4.047v-0.512c0-2.151 0-3.226-0.419-4.047-0.368-0.723-0.956-1.31-1.678-1.678-0.822-0.419-1.897-0.419-4.047-0.419h-10.752c-2.151 0-3.226 0-4.047 0.419-0.723 0.368-1.31 0.956-1.678 1.678-0.419 0.822-0.419 1.897-0.419 4.047v0.512c0 2.151 0 3.226 0.419 4.047 0.368 0.723 0.956 1.31 1.678 1.678 0.821 0.419 1.897 0.419 4.047 0.419z"></path>
</symbol>
<symbol id="icon-leter" viewBox="0 0 32 32">
<path stroke-linejoin="round" stroke-linecap="round" stroke-miterlimit="4" stroke-width="2.1333" d="M4.622 5.333h22.756c0.754 0.002 1.476 0.284 2.009 0.783s0.833 1.177 0.836 1.883v16c-0.002 0.707-0.303 1.384-0.836 1.883s-1.255 0.781-2.009 0.783h-22.756c-0.754-0.002-1.476-0.284-2.009-0.783s-0.833-1.177-0.836-1.883v-16c0.002-0.707 0.303-1.384 0.836-1.883s1.255-0.781 2.009-0.783v0z"></path>
<path stroke-linejoin="round" stroke-linecap="round" stroke-miterlimit="4" stroke-width="2.1333" d="M30.222 7.999l-14.222 9.333-14.222-9.333"></path>
</symbol>
<symbol id="icon-menu-03" viewBox="0 0 32 32">
<path stroke-linejoin="round" stroke-linecap="round" stroke-miterlimit="4" stroke-width="2.5" d="M4 16h24M4 8h24M4 24h16"></path>
</symbol>
<symbol id="icon-clock" viewBox="0 0 32 32">
<path stroke-linejoin="round" stroke-linecap="round" stroke-miterlimit="4" stroke-width="2.88" d="M16 29.333c7.364 0 13.333-5.97 13.333-13.333s-5.97-13.333-13.333-13.333c-7.364 0-13.333 5.97-13.333 13.333s5.97 13.333 13.333 13.333z"></path>
<path stroke-linejoin="round" stroke-linecap="round" stroke-miterlimit="4" stroke-width="2.88" d="M16 8v8l5.333 2.667"></path>
</symbol>
<symbol id="icon-trash-01" viewBox="0 0 32 32">
<path stroke-linejoin="round" stroke-linecap="round" stroke-miterlimit="4" stroke-width="2.6667" d="M21.333 8v-1.067c0-1.493 0-2.24-0.291-2.811-0.256-0.502-0.664-0.91-1.165-1.165-0.57-0.291-1.317-0.291-2.811-0.291h-2.133c-1.493 0-2.24 0-2.811 0.291-0.502 0.256-0.91 0.664-1.165 1.165-0.291 0.57-0.291 1.317-0.291 2.811v1.067M13.333 15.333v6.667M18.667 15.333v6.667M4 8h24M25.333 8v14.933c0 2.24 0 3.36-0.436 4.216-0.383 0.753-0.995 1.365-1.748 1.748-0.856 0.436-1.976 0.436-4.216 0.436h-5.867c-2.24 0-3.36 0-4.216-0.436-0.753-0.383-1.365-0.995-1.748-1.748-0.436-0.856-0.436-1.976-0.436-4.216v-14.933"></path>
</symbol>
<symbol id="icon-instagram" viewBox="0 0 32 32">
<path d="M22.666 2.666c1.767 0.005 3.459 0.709 4.709 1.959s1.953 2.942 1.959 4.709v13.333c-0.005 1.767-0.709 3.459-1.959 4.709s-2.942 1.953-4.709 1.959h-13.333c-1.767-0.005-3.459-0.709-4.709-1.959s-1.953-2.942-1.959-4.709v-13.333c0.005-1.767 0.709-3.459 1.959-4.709s2.942-1.953 4.709-1.959h13.333zM22.666 0h-13.333c-5.134 0-9.334 4.2-9.334 9.334v13.333c0 5.134 4.2 9.334 9.334 9.334h13.333c5.134 0 9.334-4.2 9.334-9.334v-13.333c0-5.134-4.2-9.334-9.334-9.334z"></path>
<path d="M24.666 9.336c-0.395 0-0.782-0.117-1.111-0.337s-0.585-0.532-0.737-0.898-0.191-0.768-0.114-1.156c0.077-0.388 0.268-0.744 0.547-1.024s0.636-0.47 1.024-0.547 0.79-0.038 1.155 0.114c0.365 0.151 0.678 0.408 0.898 0.737s0.337 0.716 0.337 1.111c0.001 0.263-0.051 0.523-0.151 0.766s-0.248 0.464-0.433 0.649c-0.186 0.186-0.407 0.333-0.649 0.433s-0.503 0.152-0.766 0.151zM16 10.669c1.055 0 2.086 0.313 2.963 0.899s1.561 1.419 1.964 2.394c0.404 0.975 0.509 2.047 0.303 3.082s-0.714 1.985-1.46 2.731c-0.746 0.746-1.696 1.254-2.731 1.46s-2.107 0.1-3.082-0.303c-0.975-0.404-1.808-1.087-2.394-1.964s-0.899-1.908-0.899-2.963c0.002-1.414 0.564-2.77 1.564-3.77s2.356-1.562 3.77-1.564zM16 8.003c-1.582 0-3.129 0.469-4.445 1.348s-2.341 2.128-2.946 3.59c-0.605 1.462-0.764 3.070-0.455 4.622s1.071 2.977 2.189 4.096c1.119 1.119 2.544 1.881 4.096 2.189s3.16 0.15 4.622-0.455c1.462-0.606 2.711-1.631 3.59-2.947s1.348-2.862 1.348-4.445c0-2.122-0.843-4.157-2.343-5.657s-3.535-2.343-5.657-2.343z"></path>
</symbol>
<symbol id="icon-twiter" viewBox="0 0 32 32">
<path d="M32 5.257c-1.2 0.574-2.47 0.952-3.77 1.122 1.366-0.88 2.393-2.277 2.889-3.931-1.291 0.831-2.702 1.413-4.171 1.723-0.619-0.713-1.363-1.28-2.187-1.667s-1.711-0.586-2.607-0.584c-3.628 0-6.564 3.183-6.564 7.106-0.003 0.546 0.054 1.090 0.169 1.621-2.602-0.134-5.149-0.864-7.479-2.143s-4.392-3.079-6.054-5.285c-0.583 1.081-0.891 2.314-0.893 3.571 0 2.464 1.169 4.642 2.933 5.918-1.046-0.027-2.070-0.332-2.985-0.887v0.088c0 3.447 2.267 6.314 5.267 6.967-0.564 0.165-1.146 0.249-1.729 0.249-0.414 0.001-0.828-0.043-1.234-0.132 0.834 2.823 3.261 4.877 6.137 4.935-2.336 1.981-5.205 3.051-8.155 3.043-0.524-0.001-1.047-0.035-1.567-0.103 3.001 2.108 6.489 3.223 10.049 3.212 12.091 0 18.696-10.831 18.696-20.225 0-0.308-0.007-0.616-0.021-0.917 1.282-1.003 2.391-2.25 3.275-3.681z"></path>
</symbol>
<symbol id="icon-you-tube" viewBox="0 0 32 32">
<path d="M31.794 8.98c0-2.946-2.069-5.317-4.626-5.317-3.463-0.17-6.995-0.235-10.604-0.235h-1.125c-3.6 0-7.138 0.065-10.601 0.236-2.55 0-4.619 2.383-4.619 5.33-0.156 2.33-0.223 4.661-0.219 6.992-0.006 2.331 0.065 4.664 0.213 6.999 0 2.946 2.069 5.336 4.619 5.336 3.638 0.177 7.37 0.255 11.164 0.249 3.8 0.013 7.522-0.070 11.164-0.249 2.557 0 4.626-2.39 4.626-5.336 0.15-2.337 0.219-4.668 0.213-7.006 0.014-2.331-0.054-4.664-0.204-6.999zM12.94 22.409v-12.866l9.064 6.43-9.064 6.436z"></path>
</symbol>
<symbol id="icon-facebook" viewBox="0 0 32 32">
<path d="M32 16.097c0-8.889-7.164-16.097-16-16.097s-16 7.208-16 16.097c0 8.034 5.85 14.693 13.5 15.902v-11.248h-4.064v-4.654h4.064v-3.546c0-4.034 2.389-6.263 6.044-6.263 1.751 0 3.582 0.315 3.582 0.315v3.962h-2.018c-1.986 0-2.608 1.24-2.608 2.515v3.018h4.437l-0.709 4.654h-3.728v11.249c7.65-1.208 13.5-7.867 13.5-15.903z"></path>
</symbol>
<symbol id="icon-camera" viewBox="0 0 32 32">
<path stroke-linejoin="round" stroke-linecap="round" stroke-miterlimit="4" stroke-width="0.5" d="M28.191 11.429v-4.581c0-0.807-0.32-1.58-0.889-2.152s-1.342-0.893-2.149-0.896l-4.581-0.014M28.191 20.571v4.571c0 0.808-0.321 1.583-0.893 2.155s-1.347 0.893-2.155 0.893h-4.571M11.429 3.787l-4.581 0.015c-0.807 0.002-1.58 0.325-2.149 0.896s-0.889 1.345-0.889 2.152v4.579M11.429 28.19h-4.571c-0.808 0-1.583-0.321-2.155-0.893s-0.893-1.347-0.893-2.155v-4.571"></path>
<path d="M16 18.75c0.625 0 1.156-0.219 1.594-0.656s0.656-0.969 0.656-1.594-0.219-1.156-0.656-1.594c-0.438-0.437-0.969-0.656-1.594-0.656s-1.156 0.219-1.594 0.656c-0.437 0.438-0.656 0.969-0.656 1.594s0.219 1.156 0.656 1.594c0.438 0.437 0.969 0.656 1.594 0.656zM12 20.5c-0.275 0-0.51-0.098-0.706-0.294s-0.294-0.431-0.294-0.706v-6c0-0.275 0.098-0.51 0.294-0.706s0.431-0.294 0.706-0.294h1.575l0.925-1h3l0.925 1h1.575c0.275 0 0.511 0.098 0.706 0.294s0.294 0.431 0.294 0.706v6c0 0.275-0.098 0.511-0.294 0.706s-0.431 0.294-0.706 0.294h-8z"></path>
</symbol>
<symbol id="icon-arrow-right" viewBox="0 0 32 32">
<path stroke-linejoin="round" stroke-linecap="round" stroke-miterlimit="4" stroke-width="2.1895" d="M5.474 16h16.842"></path>
<path stroke-linejoin="round" stroke-linecap="round" stroke-miterlimit="4" stroke-width="2.1895" d="M16 7.158l8.842 8.842-8.842 8.842"></path>
</symbol>
<symbol id="icon-search" viewBox="0 0 32 32">
<path stroke-linejoin="round" stroke-linecap="round" stroke-miterlimit="4" stroke-width="2.6667" d="M14.667 25.333c5.891 0 10.667-4.776 10.667-10.667s-4.776-10.667-10.667-10.667c-5.891 0-10.667 4.776-10.667 10.667s4.776 10.667 10.667 10.667z"></path>
<path stroke-linejoin="round" stroke-linecap="round" stroke-miterlimit="4" stroke-width="2.6667" d="M28 28l-5.8-5.8"></path>
</symbol>
<symbol id="icon-close" viewBox="0 0 32 32">
<path stroke-linejoin="round" stroke-linecap="round" stroke-miterlimit="4" stroke-width="2.6667" d="M25 7l-18 18"></path>
<path stroke-linejoin="round" stroke-linecap="round" stroke-miterlimit="4" stroke-width="2.6667" d="M25 25l-18-18"></path>
</symbol>
<symbol id="icon-plus" viewBox="0 0 32 32">
<path stroke-linejoin="round" stroke-linecap="round" stroke-miterlimit="4" stroke-width="3.5556" d="M16 6.667v18.667"></path>
<path stroke-linejoin="round" stroke-linecap="round" stroke-miterlimit="4" stroke-width="3.5556" d="M6.667 16h18.667"></path>
</symbol>
<symbol id="icon-user" viewBox="0 0 32 32">
<path stroke-linejoin="round" stroke-linecap="round" stroke-miterlimit="4" stroke-width="2.7234" d="M26.667 28v-2.667c0-1.414-0.562-2.771-1.562-3.771s-2.357-1.562-3.771-1.562h-10.667c-1.414 0-2.771 0.562-3.771 1.562s-1.562 2.357-1.562 3.771v2.667"></path>
<path stroke-linejoin="round" stroke-linecap="round" stroke-miterlimit="4" stroke-width="2.7234" d="M16 14.667c2.946 0 5.333-2.388 5.333-5.333s-2.388-5.333-5.333-5.333c-2.945 0-5.333 2.388-5.333 5.333s2.388 5.333 5.333 5.333z"></path>
</symbol>
<symbol id="icon-edit-01" viewBox="0 0 32 32">
<path stroke-linejoin="round" stroke-linecap="round" stroke-miterlimit="4" stroke-width="2.1895" d="M3.791 24.546c0.077-0.696 0.116-1.045 0.221-1.37 0.093-0.289 0.226-0.564 0.393-0.817 0.188-0.285 0.436-0.533 0.932-1.029l17.33-17.33c1.473-1.473 3.861-1.473 5.333 0v0c1.473 1.473 1.473 3.861 0 5.333l-17.33 17.33c-0.495 0.495-0.743 0.743-1.029 0.932-0.253 0.167-0.528 0.299-0.817 0.393-0.325 0.105-0.674 0.144-1.37 0.221l-4.121 0.458 0.458-4.121z"></path>
</symbol>
<symbol id="icon-user-01" viewBox="0 0 32 32">
<path stroke-linejoin="round" stroke-linecap="round" stroke-miterlimit="4" stroke-width="3.0476" d="M28.19 29.714c0-2.127 0-3.19-0.262-4.055-0.591-1.948-2.116-3.473-4.064-4.064-0.865-0.262-1.928-0.262-4.055-0.262h-7.619c-2.127 0-3.19 0-4.055 0.262-1.948 0.591-3.473 2.116-4.063 4.064-0.262 0.865-0.262 1.928-0.262 4.055M22.857 9.143c0 3.787-3.070 6.857-6.857 6.857s-6.857-3.070-6.857-6.857c0-3.787 3.070-6.857 6.857-6.857s6.857 3.070 6.857 6.857z"></path>
</symbol>
<symbol id="icon-logo" viewBox="0 0 32 32">
<path stroke-linejoin="round" stroke-linecap="round" stroke-miterlimit="4" stroke-width="2.5946" d="M2.077 2.205v6.918c0 1.975 0.862 3.724 2.198 4.856 0.653 0.553 1.085 1.301 1.085 2.13v11.547c0 1.284 1.103 2.326 2.462 2.326s2.462-1.042 2.462-2.326v-11.547c0-0.829 0.432-1.577 1.085-2.13 1.336-1.132 2.198-2.881 2.198-4.856v0"></path>
<path stroke-linejoin="round" stroke-linecap="round" stroke-miterlimit="4" stroke-width="2.5946" d="M7.821 9.827v-7.752"></path>
<path stroke-linejoin="round" stroke-linecap="round" stroke-miterlimit="4" stroke-width="2.5946" d="M29.982 3.706c0-0.856-0.735-1.55-1.642-1.55h-1.642c-2.72 0-4.925 2.082-4.925 4.651v9.302c0 2.022 1.374 3.726 3.283 4.366v7.181c0 1.284 1.103 2.326 2.462 2.326s2.462-1.042 2.462-2.326v-23.95z"></path>
</symbol>
</defs>
</svg>
